<svg width="79" height="79" viewBox="0 0 79 79" fill="none" xmlns="http://www.w3.org/2000/svg">
<g clip-path="url(#clip0_211_219)">
<path d="M77.44 78.9999H0.77C0.35 78.9999 0 78.6599 0 78.2299V1.55993C0 1.24993 0.19 0.969926 0.47 0.849926C0.76 0.729926 1.09 0.789926 1.31 1.01993L77.98 77.6899C78.2 77.9099 78.27 78.2399 78.15 78.5299C78.03 78.8199 77.75 78.9999 77.44 78.9999ZM1.53 77.4599H75.59L1.53 3.40993V77.4699V77.4599Z" fill="#E5E5E5"/>
<path d="M0.77002 54.5701V78.2301H24.43C17.9 78.2301 11.98 75.5801 7.70002 71.3001C3.42002 67.0201 0.77002 61.1001 0.77002 54.5701Z" fill="#E5E5E5"/>
<path d="M24.42 79H0.77C0.35 79 0 78.6601 0 78.2301V54.57C0 54.15 0.34 53.8 0.77 53.8C1.2 53.8 1.54 54.14 1.54 54.57C1.54 60.68 3.92 66.4301 8.24 70.7601C12.56 75.0801 18.31 77.4701 24.43 77.4701C24.85 77.4701 25.2 77.81 25.2 78.24C25.2 78.67 24.86 79.0101 24.43 79.0101L24.42 79ZM1.53 77.46H15.87C12.64 76.25 9.67 74.3501 7.15 71.8401C4.64 69.3301 2.74 66.3601 1.53 63.1201V77.46Z" fill="#E5E5E5"/>
<path d="M39.1002 59.82C33.9902 59.82 28.8902 57.88 25.0002 53.99C21.2302 50.23 19.1602 45.2199 19.1602 39.8899C19.1602 34.5599 21.2302 29.56 25.0002 25.79C28.7602 22.02 33.7702 19.95 39.1002 19.95C44.4302 19.95 49.4302 22.02 53.2002 25.79C56.9702 29.56 59.0402 34.5599 59.0402 39.8899C59.0402 45.2199 56.9702 50.22 53.2002 53.99C49.3102 57.88 44.2102 59.82 39.1002 59.82ZM39.1002 21.49C34.1802 21.49 29.5602 23.4 26.0902 26.88C22.6102 30.36 20.7002 34.9799 20.7002 39.8899C20.7002 44.7999 22.6102 49.43 26.0902 52.9C33.2602 60.07 44.9402 60.07 52.1102 52.9C55.5902 49.42 57.5002 44.7999 57.5002 39.8899C57.5002 34.9799 55.5902 30.35 52.1102 26.88C48.6302 23.4 44.0102 21.49 39.1002 21.49Z" fill="#E5E5E5"/>
<path d="M52.6598 26.3402C45.1698 18.8502 33.0398 18.8502 25.5498 26.3402L52.6598 53.4502C60.1498 45.9602 60.1498 33.8302 52.6598 26.3402Z" fill="#E5E5E5"/>
<path d="M58.53 60.0901C58.33 60.0901 58.14 60.0201 57.99 59.8701C57.69 59.5701 57.69 59.0901 57.99 58.7901C63.03 53.7501 65.81 47.0401 65.81 39.9101C65.81 32.7801 63.03 26.0701 57.99 21.0301C47.58 10.6201 30.63 10.6201 20.22 21.0301C19.92 21.3301 19.43 21.3301 19.14 21.0301C18.84 20.7301 18.84 20.2401 19.14 19.9501C30.15 8.94013 48.07 8.94013 59.08 19.9501C64.41 25.2801 67.35 32.3801 67.35 39.9201C67.35 47.4601 64.41 54.5501 59.08 59.8901C58.93 60.0401 58.73 60.1101 58.54 60.1101L58.53 60.0901Z" fill="#E5E5E5"/>
<path d="M9.92977 10.7298C6.54977 7.34981 0.759766 9.73981 0.759766 14.5298V1.55981L9.92977 10.7298Z" fill="#E5E5E5"/>
<path d="M0.77 15.2899C0.35 15.2899 0 14.9499 0 14.5199V1.55993C0 1.24993 0.19 0.969926 0.47 0.849926C0.76 0.729926 1.09 0.789926 1.31 1.01993L10.48 10.1899C10.78 10.4899 10.78 10.9699 10.48 11.2699C10.18 11.5699 9.7 11.5699 9.4 11.2699C8.06 9.92993 6.13 9.54993 4.38 10.2699C2.63 10.9999 1.54 12.6299 1.54 14.5199C1.54 14.9399 1.2 15.2899 0.77 15.2899ZM1.53 3.40993V10.4399C2.13 9.76993 2.89 9.21993 3.78 8.84993C4.67 8.47993 5.59 8.32993 6.5 8.37993L1.53 3.40993Z" fill="#E5E5E5"/>
<path d="M68.2702 69.0601C71.6502 72.4401 69.2602 78.2301 64.4702 78.2301H77.4402L68.2702 69.0601Z" fill="#E5E5E5"/>
<path d="M77.4402 79.0002H64.4702C64.0502 79.0002 63.7002 78.6602 63.7002 78.2302C63.7002 77.8002 64.0402 77.4602 64.4702 77.4602C66.3702 77.4602 68.0002 76.3702 68.7202 74.6202C69.4502 72.8702 69.0602 70.9502 67.7202 69.6002C67.4202 69.3002 67.4202 68.8102 67.7202 68.5102C68.0202 68.2102 68.5102 68.2102 68.8002 68.5102L77.9702 77.6802C78.1902 77.9002 78.2602 78.2302 78.1402 78.5202C78.0202 78.8102 77.7402 78.9902 77.4302 78.9902L77.4402 79.0002ZM68.5602 77.4602H75.5902L70.6202 72.4902C70.6702 73.3902 70.5102 74.3202 70.1502 75.2102C69.7802 76.1002 69.2402 76.8602 68.5602 77.4702V77.4602Z" fill="#E5E5E5"/>
</g>
<defs>
<clipPath id="clip0_211_219">
<rect width="78.21" height="78.21" fill="white" transform="translate(0 0.790039)"/>
</clipPath>
</defs>
</svg>
