<svg width="75" height="75" viewBox="0 0 75 75" fill="none" xmlns="http://www.w3.org/2000/svg">
<g clip-path="url(#clip0_211_134)">
<path d="M35.3799 74.8801C34.9599 74.8801 34.6099 74.5401 34.6099 74.1101V48.2301C34.6099 46.1301 33.7899 44.1601 32.3099 42.6701C30.8299 41.1901 28.8499 40.3701 26.7499 40.3701H0.879863C0.459863 40.3701 0.109863 40.0301 0.109863 39.6001C0.109863 39.1701 0.449863 38.8301 0.879863 38.8301H26.7599C29.2699 38.8301 31.6299 39.8101 33.3999 41.5801C35.1699 43.3501 36.1499 45.7101 36.1499 48.2201V74.1001C36.1499 74.5201 35.8099 74.8701 35.3799 74.8701V74.8801Z" fill="#1F5372"/>
<path d="M0.769883 71.93C0.569883 71.93 0.379883 71.85 0.229883 71.71C-0.0701172 71.41 -0.0701172 70.92 0.229883 70.63L26.5199 44.34C26.8199 44.04 27.3099 44.04 27.5999 44.34C27.8999 44.64 27.8999 45.13 27.5999 45.42L1.30988 71.71C1.15988 71.86 0.959883 71.93 0.769883 71.93Z" fill="#1F5372"/>
<path d="M73.7199 74.8801C73.2999 74.8801 72.9499 74.5401 72.9499 74.1101V48.2301C72.9499 46.1301 72.1299 44.1601 70.6499 42.6701C69.1599 41.1901 67.1899 40.3701 65.0899 40.3701H39.2099C38.7899 40.3701 38.4399 40.0301 38.4399 39.6001C38.4399 39.1701 38.7799 38.8301 39.2099 38.8301H65.0899C67.5999 38.8301 69.9599 39.8101 71.7299 41.5801C73.4999 43.3501 74.4799 45.7101 74.4799 48.2201V74.1001C74.4799 74.5201 74.1399 74.8701 73.7099 74.8701L73.7199 74.8801Z" fill="#1F5372"/>
<path d="M39.1 71.93C38.9 71.93 38.71 71.85 38.56 71.71C38.26 71.41 38.26 70.92 38.56 70.63L64.85 44.34C65.15 44.04 65.63 44.04 65.93 44.34C66.23 44.64 66.23 45.13 65.93 45.42L39.64 71.72C39.49 71.87 39.29 71.94 39.1 71.94V71.93Z" fill="#1F5372"/>
<path d="M73.7199 36.55C73.2999 36.55 72.9499 36.21 72.9499 35.78V9.9C72.9499 7.8 72.1299 5.83 70.6499 4.34C69.1599 2.86 67.1899 2.04 65.0899 2.04H39.2099C38.7899 2.04 38.4399 1.7 38.4399 1.27C38.4399 0.84 38.7799 0.5 39.2099 0.5H65.0899C67.5999 0.5 69.9599 1.48 71.7299 3.25C73.4999 5.03 74.4799 7.38 74.4799 9.89V35.77C74.4799 36.19 74.1399 36.54 73.7099 36.54L73.7199 36.55Z" fill="#1F5372"/>
<path d="M39.1 33.5899C38.9 33.5899 38.71 33.5099 38.56 33.3699C38.26 33.0699 38.26 32.5799 38.56 32.2899L64.85 5.9999C65.15 5.6999 65.63 5.6999 65.93 5.9999C66.23 6.2999 66.23 6.7899 65.93 7.0799L39.64 33.3699C39.49 33.5199 39.29 33.5899 39.1 33.5899Z" fill="#1F5372"/>
<path d="M35.3799 36.55C34.9599 36.55 34.6099 36.21 34.6099 35.78V9.90001C34.6099 7.80001 33.7899 5.83001 32.3099 4.34001C30.8299 2.86001 28.8499 2.04001 26.7499 2.04001H0.879863C0.459863 2.04001 0.109863 1.70001 0.109863 1.28001C0.109863 0.86001 0.449863 0.51001 0.879863 0.51001H26.7599C29.2699 0.51001 31.6299 1.49001 33.3999 3.26001C35.1699 5.04001 36.1499 7.39001 36.1499 9.90001V35.78C36.1499 36.2 35.8099 36.55 35.3799 36.55Z" fill="#1F5372"/>
<path d="M0.769883 33.5899C0.569883 33.5899 0.379883 33.5099 0.229883 33.3699C-0.0701172 33.0699 -0.0701172 32.5799 0.229883 32.2899L26.5199 5.98989C26.8199 5.68989 27.3099 5.68989 27.5999 5.98989C27.8999 6.28989 27.8999 6.77989 27.5999 7.06989L1.30988 33.3699C1.15988 33.5199 0.959883 33.5899 0.769883 33.5899Z" fill="#1F5372"/>
<path d="M3.82994 75C3.62994 75 3.43994 74.92 3.28994 74.78C2.98994 74.48 2.98994 73.9901 3.28994 73.7001L29.5799 47.4C29.8799 47.1 30.3699 47.1 30.6599 47.4C30.9599 47.7 30.9599 48.18 30.6599 48.49L4.36994 74.78C4.21994 74.93 4.01994 75 3.82994 75Z" fill="#1F5372"/>
<path d="M42.1698 75C41.9698 75 41.7798 74.92 41.6298 74.78C41.3298 74.48 41.3298 73.9901 41.6298 73.7001L67.9298 47.4C68.2298 47.1 68.7098 47.1 69.0098 47.4C69.3098 47.7 69.3098 48.18 69.0098 48.49L42.7098 74.78C42.5598 74.93 42.3598 75 42.1698 75Z" fill="#1F5372"/>
<path d="M42.1698 36.66C41.9698 36.66 41.7798 36.59 41.6298 36.44C41.3298 36.14 41.3298 35.66 41.6298 35.36L67.9298 9.06997C68.2298 8.76997 68.7098 8.76997 69.0098 9.06997C69.3098 9.36997 69.3098 9.85997 69.0098 10.15L42.7098 36.44C42.5598 36.59 42.3598 36.66 42.1698 36.66Z" fill="#1F5372"/>
<path d="M3.82994 36.66C3.62994 36.66 3.43994 36.59 3.28994 36.44C2.98994 36.14 2.98994 35.66 3.28994 35.36L29.5899 9.05996C29.8899 8.75996 30.3799 8.75996 30.6699 9.05996C30.9699 9.35996 30.9699 9.84996 30.6699 10.14L4.37994 36.43C4.22994 36.58 4.02994 36.65 3.83994 36.65L3.82994 36.66Z" fill="#1F5372"/>
</g>
<defs>
<clipPath id="clip0_211_134">
<rect width="74.49" height="74.49" fill="white" transform="translate(0 0.51001)"/>
</clipPath>
</defs>
</svg>
