<svg width="79" height="79" viewBox="0 0 79 79" fill="none" xmlns="http://www.w3.org/2000/svg">
<g clip-path="url(#clip0_211_208)">
<path d="M39.1 79C28.66 79 18.84 74.93 11.45 67.55C4.07 60.16 0 50.34 0 39.89C0 29.44 4.07 19.63 11.45 12.24C18.84 4.86004 28.66 0.790039 39.1 0.790039C49.54 0.790039 59.37 4.86004 66.75 12.24C74.14 19.62 78.2 29.45 78.2 39.89C78.2 50.33 74.13 60.15 66.75 67.54C59.37 74.93 49.54 78.99 39.1 78.99V79ZM39.1 2.32004C29.06 2.32004 19.63 6.23004 12.53 13.32C5.44 20.42 1.53 29.86 1.53 39.89C1.53 49.92 5.44 59.36 12.53 66.46C19.63 73.56 29.06 77.46 39.1 77.46C49.14 77.46 58.57 73.55 65.67 66.46C72.77 59.36 76.67 49.93 76.67 39.89C76.67 29.85 72.76 20.42 65.67 13.32C58.58 6.22004 49.14 2.32004 39.1 2.32004Z" fill="#013553"/>
<path d="M77.4399 79C77.2399 79 77.0499 78.92 76.8999 78.78L0.219941 2.09998C-0.0700586 1.79998 -0.0700586 1.30998 0.219941 1.00998C0.519941 0.71998 1.00994 0.71998 1.30994 1.00998L77.9799 77.68C78.2799 77.98 78.2799 78.47 77.9799 78.77C77.8299 78.92 77.6299 78.99 77.4399 78.99V79Z" fill="#013553"/>
<path d="M47.6299 49.1901C47.4299 49.1901 47.2399 49.1101 47.0899 48.9701C46.7899 48.6701 46.7899 48.1901 47.0899 47.8901C49.2199 45.7601 50.3999 42.9201 50.3999 39.9001C50.3999 36.8801 49.2199 34.0401 47.0899 31.9101C44.9599 29.7801 42.1199 28.6001 39.0999 28.6001C36.0799 28.6001 33.2499 29.7701 31.1099 31.9101C30.8099 32.2101 30.3199 32.2101 30.0199 31.9101C29.7199 31.6101 29.7199 31.1201 30.0199 30.8301C32.4399 28.4101 35.6699 27.0701 39.0899 27.0701C42.5099 27.0701 45.7399 28.4001 48.1599 30.8301C50.5799 33.2501 51.9199 36.4701 51.9199 39.9001C51.9199 43.3301 50.5899 46.5501 48.1599 48.9701C48.0099 49.1201 47.8099 49.1901 47.6199 49.1901H47.6299Z" fill="#013553"/>
<path d="M18.1002 18.89L11.9902 12.78C9.76018 15.01 7.80018 17.52 6.18018 20.25C8.75018 16.05 14.6102 15.4 18.1002 18.89Z" fill="#013553"/>
<path d="M6.18009 21.0201C6.05009 21.0201 5.91009 20.9801 5.78009 20.9101C5.42009 20.6901 5.30009 20.2201 5.52009 19.8601C7.18009 17.0801 9.18009 14.5201 11.4501 12.2501C11.7501 11.9501 12.2401 11.9501 12.5301 12.2501L18.6401 18.3601C18.9401 18.6601 18.9401 19.1501 18.6401 19.4401C18.3401 19.7401 17.8501 19.7401 17.5501 19.4401C16.0401 17.9301 13.9501 17.2101 11.8301 17.4601C9.74009 17.7101 7.91009 18.8701 6.82009 20.6601C6.68009 20.9001 6.42009 21.0301 6.16009 21.0301L6.18009 21.0201ZM12.0001 13.8801C11.2401 14.6801 10.5101 15.5101 9.81009 16.3701C10.4001 16.1601 11.0201 16.0201 11.6601 15.9401C12.4901 15.8401 13.3201 15.8701 14.1201 16.0001L12.0001 13.8801Z" fill="#013553"/>
<path d="M60.0997 60.8899L66.2097 66.9999C63.9797 69.2299 61.4697 71.1899 58.7397 72.8099C62.9397 70.2399 63.5897 64.3799 60.0997 60.8899Z" fill="#013553"/>
<path d="M58.7499 73.58C58.4899 73.58 58.2399 73.45 58.0899 73.21C57.8699 72.85 57.9899 72.38 58.3499 72.16C60.1299 71.07 61.2999 69.24 61.5499 67.15C61.7999 65.03 61.0799 62.94 59.5699 61.43C59.2699 61.13 59.2699 60.65 59.5699 60.35C59.8699 60.05 60.3599 60.05 60.6499 60.35L66.7599 66.46C66.8999 66.6 66.9799 66.8 66.9799 67C66.9799 67.2 66.8999 67.4 66.7599 67.54C64.4899 69.81 61.9199 71.81 59.1399 73.47C59.0199 73.54 58.8799 73.58 58.7499 73.58ZM62.9999 64.88C63.1399 65.68 63.1599 66.51 63.0599 67.34C62.9799 67.98 62.8399 68.6 62.6299 69.19C63.4899 68.5 64.3199 67.77 65.1199 67L62.9999 64.88Z" fill="#013553"/>
<path d="M39.0998 62.61C33.2798 62.61 27.4598 60.39 23.0298 55.96C14.1698 47.1 14.1698 32.68 23.0298 23.82C23.3198 23.53 23.8298 23.53 24.1098 23.82L55.1698 54.88C55.3098 55.02 55.3898 55.22 55.3898 55.42C55.3898 55.62 55.3098 55.82 55.1698 55.96C50.7398 60.39 44.9198 62.61 39.0998 62.61ZM23.5898 25.46C15.8598 33.76 16.0398 46.8 24.1198 54.88C32.1998 62.96 45.2398 63.14 53.5398 55.41L23.5898 25.46Z" fill="#013553"/>
</g>
<defs>
<clipPath id="clip0_211_208">
<rect width="78.21" height="78.21" fill="white" transform="translate(0 0.790039)"/>
</clipPath>
</defs>
</svg>
