<svg width="79" height="79" viewBox="0 0 79 79" fill="none" xmlns="http://www.w3.org/2000/svg">
<g clip-path="url(#clip0_211_233)">
<path d="M0.769766 68.6501V78.2301H10.3498C7.69977 78.2301 5.30977 77.1601 3.56977 75.4201C1.82977 73.6901 0.759766 71.2901 0.759766 68.6401L0.769766 68.6501Z" fill="#013553"/>
<path d="M10.35 79.0001H0.77C0.35 79.0001 0 78.6601 0 78.2301V68.6501C0 68.2301 0.34 67.8801 0.77 67.8801C1.2 67.8801 1.54 68.2201 1.54 68.6501C1.54 71.0101 2.46 73.2201 4.12 74.8801C5.79 76.5501 8 77.4601 10.35 77.4601C10.77 77.4601 11.12 77.8001 11.12 78.2301C11.12 78.6601 10.78 79.0001 10.35 79.0001ZM1.53 77.4601H4.92C4.24 77.0401 3.61 76.5401 3.03 75.9601C2.45 75.3801 1.95 74.7501 1.53 74.0701V77.4601Z" fill="#013553"/>
<path d="M77.44 79H0.77C0.35 79 0 78.66 0 78.23C0 77.8 0.34 77.46 0.77 77.46H77.44C77.86 77.46 78.21 77.8 78.21 78.23C78.21 78.66 77.87 79 77.44 79Z" fill="#013553"/>
<path d="M0.769766 68.6501V59.0701H10.3498C7.69977 59.0701 5.30977 60.1401 3.56977 61.8801C1.82977 63.6101 0.759766 66.0101 0.759766 68.6601L0.769766 68.6501Z" fill="#013553"/>
<path d="M0.77 69.41C0.35 69.41 0 69.07 0 68.64V59.06C0 58.64 0.34 58.29 0.77 58.29H10.35C10.77 58.29 11.12 58.63 11.12 59.06C11.12 59.49 10.78 59.83 10.35 59.83C7.99 59.83 5.78 60.75 4.12 62.41C2.46 64.08 1.54 66.29 1.54 68.64C1.54 69.06 1.2 69.41 0.77 69.41ZM1.53 59.83V63.22C1.95 62.54 2.45 61.91 3.03 61.33C3.61 60.75 4.24 60.25 4.92 59.83H1.53Z" fill="#013553"/>
<path d="M77.44 59.83H0.77C0.35 59.83 0 59.49 0 59.06C0 58.63 0.34 58.29 0.77 58.29H77.44C77.86 58.29 78.21 58.63 78.21 59.06C78.21 59.49 77.87 59.83 77.44 59.83Z" fill="#013553"/>
<path d="M0.769766 49.48V59.06H10.3498C7.69977 59.06 5.30977 57.99 3.56977 56.25C1.82977 54.52 0.759766 52.12 0.759766 49.47L0.769766 49.48Z" fill="#013553"/>
<path d="M10.35 59.83H0.77C0.35 59.83 0 59.49 0 59.06V49.48C0 49.06 0.34 48.71 0.77 48.71C1.2 48.71 1.54 49.05 1.54 49.48C1.54 51.84 2.46 54.05 4.12 55.71C5.79 57.37 8 58.29 10.35 58.29C10.77 58.29 11.12 58.63 11.12 59.06C11.12 59.49 10.78 59.83 10.35 59.83ZM1.53 58.29H4.92C4.24 57.87 3.61 57.37 3.03 56.79C2.45 56.21 1.95 55.58 1.53 54.9V58.29Z" fill="#013553"/>
<path d="M77.44 59.83H0.77C0.35 59.83 0 59.49 0 59.06C0 58.63 0.34 58.29 0.77 58.29H77.44C77.86 58.29 78.21 58.63 78.21 59.06C78.21 59.49 77.87 59.83 77.44 59.83Z" fill="#013553"/>
<path d="M0.769766 49.4801V39.9001H10.3498C7.69977 39.9001 5.30977 40.9701 3.56977 42.7101C1.82977 44.4401 0.759766 46.8401 0.759766 49.4901L0.769766 49.4801Z" fill="#013553"/>
<path d="M0.77 50.2501C0.35 50.2501 0 49.9101 0 49.4801V39.9001C0 39.4801 0.34 39.1301 0.77 39.1301H10.35C10.77 39.1301 11.12 39.4701 11.12 39.9001C11.12 40.3301 10.78 40.6701 10.35 40.6701C7.99 40.6701 5.78 41.5901 4.12 43.2501C2.46 44.9201 1.54 47.1301 1.54 49.4901C1.54 49.9101 1.2 50.2601 0.77 50.2601V50.2501ZM1.53 40.6601V44.0501C1.95 43.3701 2.45 42.7401 3.03 42.1601C3.61 41.5801 4.24 41.0801 4.92 40.6601H1.53Z" fill="#013553"/>
<path d="M77.44 40.6601H0.77C0.35 40.6601 0 40.3201 0 39.8901C0 39.4601 0.34 39.1201 0.77 39.1201H77.44C77.86 39.1201 78.21 39.4601 78.21 39.8901C78.21 40.3201 77.87 40.6601 77.44 40.6601Z" fill="#013553"/>
<path d="M0.769766 30.3101V39.9001H10.3498C7.69977 39.9001 5.30977 38.8301 3.56977 37.0901C1.82977 35.3601 0.759766 32.9601 0.759766 30.3101H0.769766Z" fill="#013553"/>
<path d="M10.35 40.66H0.77C0.35 40.66 0 40.32 0 39.89V30.3C0 29.88 0.34 29.53 0.77 29.53C1.2 29.53 1.54 29.87 1.54 30.3C1.54 32.66 2.46 34.87 4.12 36.54C5.79 38.2 8 39.12 10.35 39.12C10.77 39.12 11.12 39.46 11.12 39.89C11.12 40.32 10.78 40.66 10.35 40.66ZM1.53 39.13H4.92C4.24 38.71 3.61 38.21 3.03 37.63C2.45 37.05 1.95 36.42 1.53 35.74V39.13Z" fill="#013553"/>
<path d="M77.44 40.6601H0.77C0.35 40.6601 0 40.3201 0 39.8901C0 39.4601 0.34 39.1201 0.77 39.1201H77.44C77.86 39.1201 78.21 39.4601 78.21 39.8901C78.21 40.3201 77.87 40.6601 77.44 40.6601Z" fill="#013553"/>
<path d="M0.769766 30.31V20.73H10.3498C7.69977 20.73 5.30977 21.8 3.56977 23.54C1.82977 25.27 0.759766 27.67 0.759766 30.32L0.769766 30.31Z" fill="#013553"/>
<path d="M0.77 31.08C0.35 31.08 0 30.74 0 30.31V20.73C0 20.31 0.34 19.96 0.77 19.96H10.35C10.77 19.96 11.12 20.3 11.12 20.73C11.12 21.16 10.78 21.5 10.35 21.5C7.99 21.5 5.78 22.42 4.12 24.08C2.46 25.75 1.54 27.96 1.54 30.31C1.54 30.73 1.2 31.08 0.77 31.08ZM1.53 21.49V24.88C1.95 24.2 2.45 23.57 3.03 22.99C3.61 22.41 4.24 21.91 4.92 21.49H1.53Z" fill="#013553"/>
<path d="M77.44 21.49H0.77C0.35 21.49 0 21.15 0 20.72C0 20.29 0.34 19.95 0.77 19.95H77.44C77.86 19.95 78.21 20.29 78.21 20.72C78.21 21.15 77.87 21.49 77.44 21.49Z" fill="#013553"/>
<path d="M0.769766 11.1401V20.7201H10.3498C7.69977 20.7201 5.30977 19.6501 3.56977 17.9101C1.82977 16.1801 0.759766 13.7801 0.759766 11.1301L0.769766 11.1401Z" fill="#013553"/>
<path d="M10.35 21.4901H0.77C0.35 21.4901 0 21.1501 0 20.7201V11.1401C0 10.7201 0.34 10.3701 0.77 10.3701C1.2 10.3701 1.54 10.7101 1.54 11.1401C1.54 13.5001 2.46 15.7101 4.12 17.3801C5.79 19.0401 8 19.9601 10.35 19.9601C10.77 19.9601 11.12 20.3001 11.12 20.7301C11.12 21.1601 10.78 21.5001 10.35 21.5001V21.4901ZM1.53 19.9601H4.92C4.24 19.5401 3.61 19.0401 3.03 18.4601C2.45 17.8801 1.95 17.2501 1.53 16.5701V19.9601Z" fill="#013553"/>
<path d="M77.44 21.49H0.77C0.35 21.49 0 21.15 0 20.72C0 20.29 0.34 19.95 0.77 19.95H77.44C77.86 19.95 78.21 20.29 78.21 20.72C78.21 21.15 77.87 21.49 77.44 21.49Z" fill="#013553"/>
<path d="M0.77002 11.1401V1.56006H10.35C7.70002 1.56006 5.31002 2.63006 3.57002 4.37006C1.84002 6.10006 0.77002 8.49006 0.77002 11.1401Z" fill="#013553"/>
<path d="M0.77 11.91C0.35 11.91 0 11.57 0 11.14V1.56004C0 1.14004 0.34 0.790039 0.77 0.790039H10.35C10.77 0.790039 11.12 1.13004 11.12 1.56004C11.12 1.99004 10.78 2.33004 10.35 2.33004C7.99 2.33004 5.78 3.25004 4.12 4.91004C2.46 6.58004 1.54 8.79004 1.54 11.15C1.54 11.57 1.2 11.92 0.77 11.92V11.91ZM1.53 2.32004V5.71004C1.95 5.03004 2.45 4.40004 3.03 3.82004C3.61 3.24004 4.24 2.74004 4.92 2.32004H1.53Z" fill="#013553"/>
<path d="M77.44 2.32003H0.77C0.35 2.32003 0 1.98003 0 1.55003C0 1.12003 0.34 0.780029 0.77 0.780029H77.44C77.86 0.780029 78.21 1.12003 78.21 1.55003C78.21 1.98003 77.87 2.32003 77.44 2.32003Z" fill="#013553"/>
<path d="M39.0901 49.48V59.06H48.6701C46.0201 59.06 43.6301 57.99 41.8901 56.25C40.1601 54.52 39.0801 52.12 39.0801 49.47L39.0901 49.48Z" fill="#013553"/>
<path d="M48.6801 59.83H39.1001C38.6801 59.83 38.3301 59.49 38.3301 59.06V49.48C38.3301 49.06 38.6701 48.71 39.1001 48.71C39.5301 48.71 39.8701 49.05 39.8701 49.48C39.8701 51.84 40.7901 54.05 42.4501 55.71C44.1201 57.37 46.3301 58.29 48.6901 58.29C49.1101 58.29 49.4601 58.63 49.4601 59.06C49.4601 59.49 49.1201 59.83 48.6901 59.83H48.6801ZM39.8601 58.29H43.2501C42.5701 57.87 41.9401 57.37 41.3601 56.79C40.7801 56.21 40.2801 55.58 39.8601 54.9V58.29Z" fill="#013553"/>
<path d="M39.0896 49.4801V39.9001H48.6696C46.0196 39.9001 43.6296 40.9701 41.8896 42.7101C40.1596 44.4401 39.0796 46.8401 39.0796 49.4901L39.0896 49.4801Z" fill="#013553"/>
<path d="M39.0898 50.2501C38.6698 50.2501 38.3198 49.9101 38.3198 49.4801V39.9001C38.3198 39.4801 38.6598 39.1301 39.0898 39.1301H48.6698C49.0898 39.1301 49.4398 39.4701 49.4398 39.9001C49.4398 40.3301 49.0998 40.6701 48.6698 40.6701C46.3098 40.6701 44.0998 41.5901 42.4298 43.2501C40.7598 44.9201 39.8498 47.1301 39.8498 49.4901C39.8498 49.9101 39.5098 50.2601 39.0798 50.2601L39.0898 50.2501ZM39.8598 40.6601V44.0501C40.2798 43.3701 40.7798 42.7401 41.3598 42.1601C41.9398 41.5801 42.5698 41.0801 43.2498 40.6601H39.8598Z" fill="#013553"/>
<path d="M39.0896 11.1401V20.7201H48.6696C46.0196 20.7201 43.6296 19.6501 41.8896 17.9101C40.1596 16.1801 39.0796 13.7801 39.0796 11.1301L39.0896 11.1401Z" fill="#013553"/>
<path d="M48.6796 21.4901H39.0996C38.6796 21.4901 38.3296 21.1501 38.3296 20.7201V11.1401C38.3296 10.7201 38.6696 10.3701 39.0996 10.3701C39.5296 10.3701 39.8696 10.7101 39.8696 11.1401C39.8696 13.5001 40.7896 15.7101 42.4496 17.3801C44.1196 19.0401 46.3296 19.9601 48.6896 19.9601C49.1096 19.9601 49.4596 20.3001 49.4596 20.7301C49.4596 21.1601 49.1196 21.5001 48.6896 21.5001L48.6796 21.4901ZM39.8596 19.9601H43.2496C42.5696 19.5401 41.9396 19.0401 41.3596 18.4601C40.7796 17.8801 40.2796 17.2501 39.8596 16.5701V19.9601Z" fill="#013553"/>
<path d="M39.0896 11.1401V1.56006H48.6696C46.0196 1.56006 43.6296 2.63006 41.8896 4.37006C40.1596 6.10006 39.0796 8.50006 39.0796 11.1501L39.0896 11.1401Z" fill="#013553"/>
<path d="M39.0898 11.91C38.6698 11.91 38.3198 11.57 38.3198 11.14V1.56004C38.3198 1.14004 38.6598 0.790039 39.0898 0.790039H48.6698C49.0898 0.790039 49.4398 1.13004 49.4398 1.56004C49.4398 1.99004 49.0998 2.33004 48.6698 2.33004C46.3098 2.33004 44.0998 3.25004 42.4298 4.91004C40.7598 6.58004 39.8498 8.79004 39.8498 11.15C39.8498 11.57 39.5098 11.92 39.0798 11.92L39.0898 11.91ZM39.8598 2.32004V5.71004C40.2798 5.03004 40.7798 4.40004 41.3598 3.82004C41.9398 3.24004 42.5698 2.74004 43.2498 2.32004H39.8598Z" fill="#013553"/>
</g>
<defs>
<clipPath id="clip0_211_233">
<rect width="78.21" height="78.21" fill="white" transform="translate(0 0.790039)"/>
</clipPath>
</defs>
</svg>
