<svg width="36" height="37" viewBox="0 0 36 37" fill="none" xmlns="http://www.w3.org/2000/svg">
<path d="M21.1725 15.3899L9.5175 8.09399C9 7.79336 8.26875 8.5218 8.55 9.06524L15.4688 21.2752L27.3487 28.3862C27.4829 28.4362 27.6282 28.4454 27.7673 28.4127C27.9064 28.38 28.0334 28.3069 28.133 28.202C28.2327 28.0971 28.3009 27.9649 28.3294 27.8212C28.3579 27.6775 28.3455 27.5284 28.2938 27.3918L21.1725 15.3899ZM16.6725 20.0149L20.0475 16.5462L25.1663 25.1487L16.6725 20.0149Z" fill="#1F5372"/>
<path d="M18 0C14.4399 0 10.9598 1.08501 7.99974 3.11781C5.03966 5.15062 2.73255 8.03992 1.37018 11.4204C0.00779906 14.8008 -0.348661 18.5205 0.345873 22.1092C1.04041 25.6978 2.75474 28.9942 5.27209 31.5815C7.78943 34.1687 10.9967 35.9307 14.4884 36.6445C17.98 37.3583 21.5992 36.992 24.8883 35.5918C28.1774 34.1915 30.9886 31.8204 32.9665 28.778C34.9443 25.7357 36 22.1589 36 18.5C36 13.5935 34.1036 8.88795 30.7279 5.41852C27.3523 1.9491 22.7739 0 18 0ZM19.125 34.6297V31.8316H16.875V34.6297C13.1018 34.3483 9.55313 32.6803 6.87802 29.9309C4.20291 27.1815 2.58007 23.5343 2.30626 19.6562H5.02876V17.3437H2.30626C2.58007 13.4657 4.20291 9.81848 6.87802 7.06907C9.55313 4.31965 13.1018 2.65173 16.875 2.37031V5.16844H19.125V2.37031C22.8983 2.65173 26.4469 4.31965 29.122 7.06907C31.7971 9.81848 33.4199 13.4657 33.6938 17.3437H30.9713V19.6562H33.6938C33.4199 23.5343 31.7971 27.1815 29.122 29.9309C26.4469 32.6803 22.8983 34.3483 19.125 34.6297Z" fill="#1F5372"/>
</svg>
