<svg width="1344" height="767" viewBox="0 0 1344 767" fill="none" xmlns="http://www.w3.org/2000/svg">
<rect width="80" height="81" transform="translate(200 560)" fill="#002134"/>
<path d="M242.465 583.596C242.008 583.596 241.592 583.503 241.219 583.316C240.855 583.12 240.566 582.854 240.351 582.518C240.146 582.173 240.043 581.785 240.043 581.356C240.043 580.927 240.146 580.544 240.351 580.208C240.566 579.872 240.855 579.611 241.219 579.424C241.592 579.228 242.008 579.13 242.465 579.13C242.922 579.13 243.333 579.228 243.697 579.424C244.07 579.611 244.36 579.872 244.565 580.208C244.78 580.544 244.887 580.927 244.887 581.356C244.887 581.785 244.78 582.173 244.565 582.518C244.36 582.854 244.07 583.12 243.697 583.316C243.333 583.503 242.922 583.596 242.465 583.596ZM237.635 579.2H238.657V589H237.803L231.503 581.048V589H230.467V579.2H231.321L237.635 587.152V579.2ZM242.465 579.746C241.97 579.746 241.564 579.895 241.247 580.194C240.93 580.493 240.771 580.88 240.771 581.356C240.771 581.832 240.925 582.219 241.233 582.518C241.55 582.817 241.961 582.966 242.465 582.966C242.969 582.966 243.375 582.817 243.683 582.518C244 582.219 244.159 581.832 244.159 581.356C244.159 580.88 244 580.493 243.683 580.194C243.366 579.895 242.96 579.746 242.465 579.746ZM240.323 584.8H244.607V585.5H240.323V584.8ZM249.514 579.2V589H248.506V580.096H246.196V579.2H249.514Z" fill="white"/>
<path d="M228.523 609.704C230.006 609.704 231.142 610.195 231.931 611.176C232.72 612.147 233.115 613.523 233.115 615.304C233.115 616.552 232.902 617.608 232.475 618.472C232.048 619.336 231.451 619.992 230.683 620.44C229.915 620.877 229.019 621.096 227.995 621.096C226.886 621.096 226 620.893 225.339 620.488L225.803 619.56C226.336 619.912 227.062 620.088 227.979 620.088C229.216 620.088 230.187 619.699 230.891 618.92C231.595 618.131 231.947 616.989 231.947 615.496C231.947 615.219 231.931 614.915 231.899 614.584C231.622 615.192 231.179 615.667 230.571 616.008C229.963 616.339 229.264 616.504 228.475 616.504C227.739 616.504 227.083 616.365 226.507 616.088C225.942 615.811 225.499 615.421 225.179 614.92C224.859 614.408 224.699 613.816 224.699 613.144C224.699 612.461 224.864 611.859 225.195 611.336C225.526 610.813 225.979 610.413 226.555 610.136C227.142 609.848 227.798 609.704 228.523 609.704ZM228.651 615.528C229.216 615.528 229.712 615.421 230.139 615.208C230.576 614.995 230.918 614.701 231.163 614.328C231.408 613.955 231.531 613.539 231.531 613.08C231.531 612.653 231.414 612.259 231.179 611.896C230.955 611.533 230.619 611.24 230.171 611.016C229.723 610.792 229.19 610.68 228.571 610.68C227.76 610.68 227.099 610.904 226.587 611.352C226.086 611.789 225.835 612.376 225.835 613.112C225.835 613.848 226.086 614.435 226.587 614.872C227.099 615.309 227.787 615.528 228.651 615.528ZM242.402 619.976V621H234.546V620.184L239.202 615.624C239.789 615.048 240.183 614.552 240.386 614.136C240.599 613.709 240.706 613.283 240.706 612.856C240.706 612.195 240.477 611.683 240.018 611.32C239.57 610.947 238.925 610.76 238.082 610.76C236.77 610.76 235.751 611.176 235.026 612.008L234.21 611.304C234.647 610.792 235.202 610.397 235.874 610.12C236.557 609.843 237.325 609.704 238.178 609.704C239.319 609.704 240.221 609.976 240.882 610.52C241.554 611.053 241.89 611.789 241.89 612.728C241.89 613.304 241.762 613.859 241.506 614.392C241.25 614.925 240.765 615.539 240.05 616.232L236.242 619.976H242.402ZM244.868 621.08C244.633 621.08 244.431 620.995 244.26 620.824C244.1 620.653 244.02 620.445 244.02 620.2C244.02 619.955 244.1 619.752 244.26 619.592C244.431 619.421 244.633 619.336 244.868 619.336C245.103 619.336 245.305 619.421 245.476 619.592C245.647 619.752 245.732 619.955 245.732 620.2C245.732 620.445 245.647 620.653 245.476 620.824C245.305 620.995 245.103 621.08 244.868 621.08ZM255.111 609.8V610.616L250.423 621H249.175L253.783 610.824H248.023V612.92H246.887V609.8H255.111Z" fill="white"/>
<rect width="80" height="81" transform="translate(160 190)" fill="#002134"/>
<path d="M202.465 213.596C202.008 213.596 201.592 213.503 201.219 213.316C200.855 213.12 200.566 212.854 200.351 212.518C200.146 212.173 200.043 211.785 200.043 211.356C200.043 210.927 200.146 210.544 200.351 210.208C200.566 209.872 200.855 209.611 201.219 209.424C201.592 209.228 202.008 209.13 202.465 209.13C202.922 209.13 203.333 209.228 203.697 209.424C204.07 209.611 204.36 209.872 204.565 210.208C204.78 210.544 204.887 210.927 204.887 211.356C204.887 211.785 204.78 212.173 204.565 212.518C204.36 212.854 204.07 213.12 203.697 213.316C203.333 213.503 202.922 213.596 202.465 213.596ZM197.635 209.2H198.657V219H197.803L191.503 211.048V219H190.467V209.2H191.321L197.635 217.152V209.2ZM202.465 209.746C201.97 209.746 201.564 209.895 201.247 210.194C200.93 210.493 200.771 210.88 200.771 211.356C200.771 211.832 200.925 212.219 201.233 212.518C201.55 212.817 201.961 212.966 202.465 212.966C202.969 212.966 203.375 212.817 203.683 212.518C204 212.219 204.159 211.832 204.159 211.356C204.159 210.88 204 210.493 203.683 210.194C203.366 209.895 202.96 209.746 202.465 209.746ZM200.323 214.8H204.607V215.5H200.323V214.8ZM209.514 209.2V219H208.506V210.096H206.196V209.2H209.514Z" fill="white"/>
<path d="M188.523 239.704C190.006 239.704 191.142 240.195 191.931 241.176C192.72 242.147 193.115 243.523 193.115 245.304C193.115 246.552 192.902 247.608 192.475 248.472C192.048 249.336 191.451 249.992 190.683 250.44C189.915 250.877 189.019 251.096 187.995 251.096C186.886 251.096 186 250.893 185.339 250.488L185.803 249.56C186.336 249.912 187.062 250.088 187.979 250.088C189.216 250.088 190.187 249.699 190.891 248.92C191.595 248.131 191.947 246.989 191.947 245.496C191.947 245.219 191.931 244.915 191.899 244.584C191.622 245.192 191.179 245.667 190.571 246.008C189.963 246.339 189.264 246.504 188.475 246.504C187.739 246.504 187.083 246.365 186.507 246.088C185.942 245.811 185.499 245.421 185.179 244.92C184.859 244.408 184.699 243.816 184.699 243.144C184.699 242.461 184.864 241.859 185.195 241.336C185.526 240.813 185.979 240.413 186.555 240.136C187.142 239.848 187.798 239.704 188.523 239.704ZM188.651 245.528C189.216 245.528 189.712 245.421 190.139 245.208C190.576 244.995 190.918 244.701 191.163 244.328C191.408 243.955 191.531 243.539 191.531 243.08C191.531 242.653 191.414 242.259 191.179 241.896C190.955 241.533 190.619 241.24 190.171 241.016C189.723 240.792 189.19 240.68 188.571 240.68C187.76 240.68 187.099 240.904 186.587 241.352C186.086 241.789 185.835 242.376 185.835 243.112C185.835 243.848 186.086 244.435 186.587 244.872C187.099 245.309 187.787 245.528 188.651 245.528ZM202.402 249.976V251H194.546V250.184L199.202 245.624C199.789 245.048 200.183 244.552 200.386 244.136C200.599 243.709 200.706 243.283 200.706 242.856C200.706 242.195 200.477 241.683 200.018 241.32C199.57 240.947 198.925 240.76 198.082 240.76C196.77 240.76 195.751 241.176 195.026 242.008L194.21 241.304C194.647 240.792 195.202 240.397 195.874 240.12C196.557 239.843 197.325 239.704 198.178 239.704C199.319 239.704 200.221 239.976 200.882 240.52C201.554 241.053 201.89 241.789 201.89 242.728C201.89 243.304 201.762 243.859 201.506 244.392C201.25 244.925 200.765 245.539 200.05 246.232L196.242 249.976H202.402ZM204.868 251.08C204.633 251.08 204.431 250.995 204.26 250.824C204.1 250.653 204.02 250.445 204.02 250.2C204.02 249.955 204.1 249.752 204.26 249.592C204.431 249.421 204.633 249.336 204.868 249.336C205.103 249.336 205.305 249.421 205.476 249.592C205.647 249.752 205.732 249.955 205.732 250.2C205.732 250.445 205.647 250.653 205.476 250.824C205.305 250.995 205.103 251.08 204.868 251.08ZM215.111 239.8V240.616L210.423 251H209.175L213.783 240.824H208.023V242.92H206.887V239.8H215.111Z" fill="white"/>
<rect width="80" height="81" transform="translate(647 552)" fill="#002134"/>
<path d="M689.465 575.596C689.008 575.596 688.592 575.503 688.219 575.316C687.855 575.12 687.566 574.854 687.351 574.518C687.146 574.173 687.043 573.785 687.043 573.356C687.043 572.927 687.146 572.544 687.351 572.208C687.566 571.872 687.855 571.611 688.219 571.424C688.592 571.228 689.008 571.13 689.465 571.13C689.922 571.13 690.333 571.228 690.697 571.424C691.07 571.611 691.36 571.872 691.565 572.208C691.78 572.544 691.887 572.927 691.887 573.356C691.887 573.785 691.78 574.173 691.565 574.518C691.36 574.854 691.07 575.12 690.697 575.316C690.333 575.503 689.922 575.596 689.465 575.596ZM684.635 571.2H685.657V581H684.803L678.503 573.048V581H677.467V571.2H678.321L684.635 579.152V571.2ZM689.465 571.746C688.97 571.746 688.564 571.895 688.247 572.194C687.93 572.493 687.771 572.88 687.771 573.356C687.771 573.832 687.925 574.219 688.233 574.518C688.55 574.817 688.961 574.966 689.465 574.966C689.969 574.966 690.375 574.817 690.683 574.518C691 574.219 691.159 573.832 691.159 573.356C691.159 572.88 691 572.493 690.683 572.194C690.366 571.895 689.96 571.746 689.465 571.746ZM687.323 576.8H691.607V577.5H687.323V576.8ZM696.514 571.2V581H695.506V572.096H693.196V571.2H696.514Z" fill="white"/>
<path d="M675.523 601.704C677.006 601.704 678.142 602.195 678.931 603.176C679.72 604.147 680.115 605.523 680.115 607.304C680.115 608.552 679.902 609.608 679.475 610.472C679.048 611.336 678.451 611.992 677.683 612.44C676.915 612.877 676.019 613.096 674.995 613.096C673.886 613.096 673 612.893 672.339 612.488L672.803 611.56C673.336 611.912 674.062 612.088 674.979 612.088C676.216 612.088 677.187 611.699 677.891 610.92C678.595 610.131 678.947 608.989 678.947 607.496C678.947 607.219 678.931 606.915 678.899 606.584C678.622 607.192 678.179 607.667 677.571 608.008C676.963 608.339 676.264 608.504 675.475 608.504C674.739 608.504 674.083 608.365 673.507 608.088C672.942 607.811 672.499 607.421 672.179 606.92C671.859 606.408 671.699 605.816 671.699 605.144C671.699 604.461 671.864 603.859 672.195 603.336C672.526 602.813 672.979 602.413 673.555 602.136C674.142 601.848 674.798 601.704 675.523 601.704ZM675.651 607.528C676.216 607.528 676.712 607.421 677.139 607.208C677.576 606.995 677.918 606.701 678.163 606.328C678.408 605.955 678.531 605.539 678.531 605.08C678.531 604.653 678.414 604.259 678.179 603.896C677.955 603.533 677.619 603.24 677.171 603.016C676.723 602.792 676.19 602.68 675.571 602.68C674.76 602.68 674.099 602.904 673.587 603.352C673.086 603.789 672.835 604.376 672.835 605.112C672.835 605.848 673.086 606.435 673.587 606.872C674.099 607.309 674.787 607.528 675.651 607.528ZM689.402 611.976V613H681.546V612.184L686.202 607.624C686.789 607.048 687.183 606.552 687.386 606.136C687.599 605.709 687.706 605.283 687.706 604.856C687.706 604.195 687.477 603.683 687.018 603.32C686.57 602.947 685.925 602.76 685.082 602.76C683.77 602.76 682.751 603.176 682.026 604.008L681.21 603.304C681.647 602.792 682.202 602.397 682.874 602.12C683.557 601.843 684.325 601.704 685.178 601.704C686.319 601.704 687.221 601.976 687.882 602.52C688.554 603.053 688.89 603.789 688.89 604.728C688.89 605.304 688.762 605.859 688.506 606.392C688.25 606.925 687.765 607.539 687.05 608.232L683.242 611.976H689.402ZM691.868 613.08C691.633 613.08 691.431 612.995 691.26 612.824C691.1 612.653 691.02 612.445 691.02 612.2C691.02 611.955 691.1 611.752 691.26 611.592C691.431 611.421 691.633 611.336 691.868 611.336C692.103 611.336 692.305 611.421 692.476 611.592C692.647 611.752 692.732 611.955 692.732 612.2C692.732 612.445 692.647 612.653 692.476 612.824C692.305 612.995 692.103 613.08 691.868 613.08ZM702.111 601.8V602.616L697.423 613H696.175L700.783 602.824H695.023V604.92H693.887V601.8H702.111Z" fill="white"/>
<rect width="80" height="81" transform="translate(1084 190)" fill="#002134"/>
<path d="M1126.47 213.596C1126.01 213.596 1125.59 213.503 1125.22 213.316C1124.86 213.12 1124.57 212.854 1124.35 212.518C1124.15 212.173 1124.04 211.785 1124.04 211.356C1124.04 210.927 1124.15 210.544 1124.35 210.208C1124.57 209.872 1124.86 209.611 1125.22 209.424C1125.59 209.228 1126.01 209.13 1126.47 209.13C1126.92 209.13 1127.33 209.228 1127.7 209.424C1128.07 209.611 1128.36 209.872 1128.57 210.208C1128.78 210.544 1128.89 210.927 1128.89 211.356C1128.89 211.785 1128.78 212.173 1128.57 212.518C1128.36 212.854 1128.07 213.12 1127.7 213.316C1127.33 213.503 1126.92 213.596 1126.47 213.596ZM1121.64 209.2H1122.66V219H1121.8L1115.5 211.048V219H1114.47V209.2H1115.32L1121.64 217.152V209.2ZM1126.47 209.746C1125.97 209.746 1125.56 209.895 1125.25 210.194C1124.93 210.493 1124.77 210.88 1124.77 211.356C1124.77 211.832 1124.93 212.219 1125.23 212.518C1125.55 212.817 1125.96 212.966 1126.47 212.966C1126.97 212.966 1127.38 212.817 1127.68 212.518C1128 212.219 1128.16 211.832 1128.16 211.356C1128.16 210.88 1128 210.493 1127.68 210.194C1127.37 209.895 1126.96 209.746 1126.47 209.746ZM1124.32 214.8H1128.61V215.5H1124.32V214.8ZM1133.51 209.2V219H1132.51V210.096H1130.2V209.2H1133.51Z" fill="white"/>
<path d="M1112.52 239.704C1114.01 239.704 1115.14 240.195 1115.93 241.176C1116.72 242.147 1117.12 243.523 1117.12 245.304C1117.12 246.552 1116.9 247.608 1116.48 248.472C1116.05 249.336 1115.45 249.992 1114.68 250.44C1113.92 250.877 1113.02 251.096 1112 251.096C1110.89 251.096 1110 250.893 1109.34 250.488L1109.8 249.56C1110.34 249.912 1111.06 250.088 1111.98 250.088C1113.22 250.088 1114.19 249.699 1114.89 248.92C1115.6 248.131 1115.95 246.989 1115.95 245.496C1115.95 245.219 1115.93 244.915 1115.9 244.584C1115.62 245.192 1115.18 245.667 1114.57 246.008C1113.96 246.339 1113.26 246.504 1112.48 246.504C1111.74 246.504 1111.08 246.365 1110.51 246.088C1109.94 245.811 1109.5 245.421 1109.18 244.92C1108.86 244.408 1108.7 243.816 1108.7 243.144C1108.7 242.461 1108.86 241.859 1109.2 241.336C1109.53 240.813 1109.98 240.413 1110.56 240.136C1111.14 239.848 1111.8 239.704 1112.52 239.704ZM1112.65 245.528C1113.22 245.528 1113.71 245.421 1114.14 245.208C1114.58 244.995 1114.92 244.701 1115.16 244.328C1115.41 243.955 1115.53 243.539 1115.53 243.08C1115.53 242.653 1115.41 242.259 1115.18 241.896C1114.96 241.533 1114.62 241.24 1114.17 241.016C1113.72 240.792 1113.19 240.68 1112.57 240.68C1111.76 240.68 1111.1 240.904 1110.59 241.352C1110.09 241.789 1109.84 242.376 1109.84 243.112C1109.84 243.848 1110.09 244.435 1110.59 244.872C1111.1 245.309 1111.79 245.528 1112.65 245.528ZM1126.4 249.976V251H1118.55V250.184L1123.2 245.624C1123.79 245.048 1124.18 244.552 1124.39 244.136C1124.6 243.709 1124.71 243.283 1124.71 242.856C1124.71 242.195 1124.48 241.683 1124.02 241.32C1123.57 240.947 1122.92 240.76 1122.08 240.76C1120.77 240.76 1119.75 241.176 1119.03 242.008L1118.21 241.304C1118.65 240.792 1119.2 240.397 1119.87 240.12C1120.56 239.843 1121.32 239.704 1122.18 239.704C1123.32 239.704 1124.22 239.976 1124.88 240.52C1125.55 241.053 1125.89 241.789 1125.89 242.728C1125.89 243.304 1125.76 243.859 1125.51 244.392C1125.25 244.925 1124.76 245.539 1124.05 246.232L1120.24 249.976H1126.4ZM1128.87 251.08C1128.63 251.08 1128.43 250.995 1128.26 250.824C1128.1 250.653 1128.02 250.445 1128.02 250.2C1128.02 249.955 1128.1 249.752 1128.26 249.592C1128.43 249.421 1128.63 249.336 1128.87 249.336C1129.1 249.336 1129.31 249.421 1129.48 249.592C1129.65 249.752 1129.73 249.955 1129.73 250.2C1129.73 250.445 1129.65 250.653 1129.48 250.824C1129.31 250.995 1129.1 251.08 1128.87 251.08ZM1139.11 239.8V240.616L1134.42 251H1133.18L1137.78 240.824H1132.02V242.92H1130.89V239.8H1139.11Z" fill="white"/>
</svg>
