<svg width="112" height="48" viewBox="0 0 112 48" fill="none" xmlns="http://www.w3.org/2000/svg">
<path d="M94.8584 37.985V38.372C94.8584 41.7086 95.541 44.1509 96.9113 45.6885C98.2816 47.2313 100.432 48.0001 103.378 48.0001C106.113 48.0001 108.233 47.2112 109.742 45.6433C111.245 44.0704 112 41.774 112 38.7589V9.05538C112 3.0202 109.264 0.00512695 103.788 0.00512695C97.9326 0.00512695 94.8584 3.66844 94.8584 8.9599V37.9901V37.985ZM99.1181 7.81417C99.1181 5.69859 99.698 2.0202 103.424 2.0202C106.719 2.0202 107.663 4.12573 107.663 6.83427V41.2011C107.663 44.2765 105.549 45.8242 103.321 45.8242C101.094 45.8242 99.1181 44.3167 99.1181 41.2966V7.81417Z" fill="currentColor"/>
<path d="M52.0097 27.1206V9.05025C52.0097 3.01508 49.2742 0 43.7982 0C37.9423 0 34.8682 3.66332 34.8682 8.95478V38.3719C34.8682 41.7085 35.5507 44.1507 36.921 45.6884C38.2913 47.2312 40.4417 48 43.3876 48C46.1231 48 48.2427 47.2111 49.7515 45.6432C51.2553 44.0703 52.0097 41.7739 52.0097 38.7588V35.1106H47.6781V41.201C47.6781 44.2764 45.5637 45.8241 43.3363 45.8241C41.1089 45.8241 39.133 44.3166 39.133 41.2965V27.9347H52.0097V27.1256V27.1206ZM39.133 7.81407C39.133 5.69849 39.713 2.0201 43.4389 2.0201C46.7338 2.0201 47.6781 4.12563 47.6781 6.83417V26.3668H39.133V7.81407Z" fill="currentColor"/>
<path d="M78.1584 47.5931V1.97004H69.6133V47.5931H65.3535V0.407227H86.9293V1.97004H82.4899V47.5931H78.1584Z" fill="currentColor"/>
<path d="M22.6689 46.3519H27.0005V47.8595H0V46.3519H5.31183L14.5549 1.97004H8.33469V0.407227H22.6946C22.6946 15.7188 22.6792 31.0354 22.6741 46.3519M18.4451 46.3519L18.363 4.24642L9.52536 46.3519H18.4451Z" fill="currentColor"/>
</svg>
