<svg width="112" height="134" viewBox="0 0 112 134" fill="none" xmlns="http://www.w3.org/2000/svg">
<g clip-path="url(#clip0_168_109)">
<path d="M80.9693 133.968V55.2632H55.2277V133.968H47.003V134H29.1544H16.32H0V129.971H16.32V59.1956L16.3038 59.1876L54.702 18.413L54.6454 10.2017L5.86324 59.2037H2.02181L54.6211 6.36599V6.33375H54.6454L54.6696 6.31764L54.6858 6.33375H66.0807L72.0491 0H75.7935L67.6577 8.63035L67.6011 45.7626L54.8961 45.7384L54.7343 22.3615L29.1544 49.5177V129.971H42.3852V51.2341H45.6847H55.2277H80.9693H92.6877H94.014V129.971H112V134H81.3656V133.968H80.9693Z" fill="#1D1D1B"/>
</g>
<defs>
<clipPath id="clip0_168_109">
<rect width="112" height="134" fill="white"/>
</clipPath>
</defs>
</svg>
