<svg width="36" height="36" viewBox="0 0 36 36" fill="none" xmlns="http://www.w3.org/2000/svg">
<path d="M29.9995 23.8933V28.608C29.9997 28.9456 29.8718 29.2706 29.6416 29.5176C29.4115 29.7646 29.0963 29.915 28.7595 29.9387C28.1773 29.9796 27.7017 30 27.3328 30C15.5502 30 5.99951 20.4493 5.99951 8.66667C5.99951 8.29867 6.01996 7.82311 6.06085 7.24C6.08447 6.90326 6.23495 6.58801 6.48192 6.35788C6.72888 6.12774 7.05394 5.99985 7.39151 6H12.1062C12.2716 5.99983 12.4311 6.06115 12.5538 6.17203C12.6765 6.28291 12.7536 6.43544 12.7702 6.6C12.8004 6.90578 12.8288 7.15111 12.8555 7.336C13.1205 9.18524 13.6635 10.9838 14.4662 12.6707C14.5928 12.9373 14.5102 13.256 14.2702 13.4267L11.3928 15.4827C13.1525 19.5817 16.4191 22.8484 20.5182 24.608L22.5715 21.736C22.6551 21.6182 22.7775 21.5338 22.9173 21.4974C23.0571 21.4611 23.2052 21.4752 23.3355 21.5373C25.0222 22.3385 26.8203 22.8802 28.6688 23.144C28.8537 23.1707 29.0982 23.1991 29.4022 23.2293C29.5665 23.2462 29.7187 23.3234 29.8293 23.4461C29.9399 23.5688 29.9997 23.7282 29.9995 23.8933Z" fill="#1D1D1B"/>
</svg>
