<svg width="168" height="74" viewBox="0 0 168 74" fill="none" xmlns="http://www.w3.org/2000/svg">
<path d="M142.288 58.1911V58.7838C142.288 63.8955 143.311 67.6369 145.367 69.9926C147.422 72.3559 150.648 73.5338 155.067 73.5338C159.17 73.5338 162.349 72.3251 164.613 69.9233C166.868 67.5137 168 63.9956 168 59.3766V13.872C168 4.6263 163.897 0.00732422 155.683 0.00732422C146.899 0.00732422 142.288 5.61938 142.288 13.7257V58.1988V58.1911ZM148.677 11.9705C148.677 8.72949 149.547 3.09434 155.136 3.09434C160.078 3.09434 161.495 6.31993 161.495 10.4693V63.118C161.495 67.8293 158.323 70.2004 154.982 70.2004C151.641 70.2004 148.677 67.8909 148.677 63.2643V11.9705Z" fill="#002134"/>
<path d="M78.015 41.5477V13.8646C78.015 4.61899 73.9118 0 65.6977 0C56.9139 0 52.3027 5.61207 52.3027 13.7184V58.7842C52.3027 63.8959 53.3266 67.6373 55.3821 69.9929C57.4375 72.3563 60.6631 73.5342 65.0819 73.5342C69.1851 73.5342 72.3645 72.3255 74.6278 69.9237C76.8834 67.5141 78.015 63.996 78.015 59.377V53.788H71.5177V63.1184C71.5177 67.8297 68.346 70.2008 65.0049 70.2008C61.6639 70.2008 58.7 67.8913 58.7 63.2646V42.7949H78.015V41.5554V41.5477ZM58.7 11.9709C58.7 8.72987 59.5699 3.09472 65.1589 3.09472C70.1012 3.09472 71.5177 6.32031 71.5177 10.4697V40.393H58.7V11.9709Z" fill="#002134"/>
<path d="M117.238 72.9106V3.01771H104.42V72.9106H98.0303V0.623535H130.394V3.01771H123.735V72.9106H117.238Z" fill="#002134"/>
<path d="M34.0034 71.0091H40.5007V73.3186H0V71.0091H7.96772L21.8324 3.01771H12.502V0.623535H34.0419C34.0419 24.0803 34.0188 47.5447 34.0111 71.0091M27.6677 71.0091L27.5445 6.50504L14.2881 71.0091H27.6677Z" fill="#002134"/>
</svg>
